<!-- Generated by IcoMoon.io -->
<svg version="1.1" xmlns="http://www.w3.org/2000/svg" width="32" height="32" viewBox="0 0 32 32">
<title>alert-marked</title>
<path d="M15.43 27.136c6.354-0 11.525-5.064 11.699-11.376l0-0.016 2.027-2.026c0.068 0.515 0.107 1.111 0.107 1.716 0 7.639-6.193 13.832-13.832 13.832s-13.832-6.193-13.832-13.832c0-7.639 6.193-13.832 13.832-13.832 4.562 0 8.608 2.208 11.127 5.614l0.027 0.038-1.526 1.528c-2.14-3.069-5.654-5.053-9.63-5.053-6.464 0-11.704 5.24-11.704 11.704s5.24 11.704 11.704 11.704c0 0 0 0 0 0v0zM28.618 11.246l2.773-2.773-1.51-1.51-7.256 7.277-2.938-2.933-1.51 1.51 3.68 3.68h1.51l3.51-3.51zM14.366 14.368v4.256h2.128v-10.64h-2.128zM14.366 22.88v-2.133h2.128v2.128z"></path>
</svg>