<!-- Generated by IcoMoon.io -->
<svg version="1.1" xmlns="http://www.w3.org/2000/svg" width="32" height="32" viewBox="0 0 32 32">
<title>alert</title>
<path d="M16 1.6c-7.953 0-14.4 6.447-14.4 14.4s6.447 14.4 14.4 14.4c7.953 0 14.4-6.447 14.4-14.4v0c0-7.953-6.447-14.4-14.4-14.4v0zM16 28.184c-6.729 0-12.184-5.455-12.184-12.184s5.455-12.184 12.184-12.184c6.729 0 12.184 5.455 12.184 12.184v0c0 6.729-5.455 12.184-12.184 12.184v0zM17.107 8.245h-2.214v11.077h2.216zM14.891 21.538h2.216v2.216h-2.214z"></path>
</svg>